<svg xmlns="http://www.w3.org/2000/svg" fill="none" viewBox="0 0 24 24" stroke-width="1.5" stroke="currentColor" class="size-6">
  <g transform="translate(0 -0.5) scale(1 1.06)">
    <path stroke-linecap="round" stroke-linejoin="round" d="M3 8.25V18a2.25 2.25 0 0 0 2.25 2.25h13.5A2.25 2.25 0 0 0 21 18V8.25m-18 0V6a2.25 2.25 0 0 1 2.25-2.25h13.5A2.25 2.25 0 0 1 21 6v2.25m-18 0h18M5.25 6h.008v.008H5.25V6ZM7.5 6h.008v.008H7.5V6Zm2.25 0h.008v.008H9.75V6Z" />
  </g>
  <g transform="translate(5.8 8.5) scale(0.5)">
    <path stroke-linecap="round" stroke-linejoin="round" vector-effect="non-scaling-stroke" stroke-width="1.2" d="M17.25 6.75 22.5 12l-5.25 5.25m-10.5 0L1.5 12l5.25-5.25m7.5-3-4.5 16.5" />
  </g>
</svg>
